<svg width="390" height="418" viewBox="0 0 390 418" fill="none" xmlns="http://www.w3.org/2000/svg">
<path d="M578.344 119.5C578.344 64.152 561.931 10.0469 531.182 -35.9733C500.432 -81.9935 456.726 -117.862 405.592 -139.043C354.457 -160.223 298.189 -165.765 243.905 -154.967C189.62 -144.17 139.757 -117.517 100.62 -78.3798C48.139 -25.8988 18.6555 45.2807 18.6555 119.5C18.6555 193.719 48.139 264.899 100.62 317.38C153.101 369.861 224.281 399.344 298.5 399.344C372.719 399.344 443.899 369.861 496.38 317.38C522.447 291.454 543.113 260.616 557.182 226.65C571.251 192.684 578.444 156.264 578.344 119.5ZM298.5 380.688C246.842 380.688 196.344 365.369 153.392 336.67C110.44 307.97 76.9626 267.178 57.1939 219.452C37.4252 171.726 32.2529 119.21 42.3308 68.5448C52.4088 17.8794 77.2846 -28.6598 113.812 -65.1875C162.795 -114.17 229.229 -141.688 298.5 -141.688C367.771 -141.688 434.205 -114.17 483.187 -65.1875C532.17 -16.2053 559.688 50.2288 559.688 119.5C559.688 188.771 532.17 255.205 483.187 304.188C458.99 328.517 430.208 347.806 398.506 360.937C366.805 374.068 332.813 380.781 298.5 380.688Z" fill="#FCADFC" fill-opacity="0.49"/>
<path d="M298.5 -123.031C164.769 -123.031 55.9688 -14.2315 55.9688 119.5C55.9688 253.232 164.769 362.031 298.5 362.031C432.232 362.031 541.031 253.232 541.031 119.5C541.031 -14.2315 432.232 -123.031 298.5 -123.031ZM298.5 343.375C175.055 343.375 74.625 242.945 74.625 119.5C74.625 -3.94489 175.055 -104.375 298.5 -104.375C421.945 -104.375 522.375 -3.94489 522.375 119.5C522.375 242.945 421.945 343.375 298.5 343.375Z" fill="#FCADFC" fill-opacity="0.49"/>
<path d="M298.5 91.5156C292.965 91.5156 287.555 93.1569 282.953 96.2318C278.351 99.3068 274.764 103.677 272.646 108.791C270.528 113.904 269.974 119.531 271.053 124.959C272.133 130.388 274.798 135.374 278.712 139.288C282.626 143.202 287.612 145.867 293.041 146.947C298.469 148.026 304.096 147.472 309.209 145.354C314.323 143.236 318.693 139.649 321.768 135.047C324.843 130.445 326.484 125.035 326.484 119.5C326.476 112.081 323.525 104.968 318.279 99.7213C313.032 94.475 305.919 91.524 298.5 91.5156ZM298.5 128.828C296.655 128.828 294.852 128.281 293.318 127.256C291.784 126.231 290.588 124.774 289.882 123.07C289.176 121.365 288.991 119.49 289.351 117.68C289.711 115.871 290.599 114.209 291.904 112.904C293.209 111.599 294.871 110.711 296.68 110.351C298.49 109.991 300.365 110.176 302.07 110.882C303.774 111.588 305.231 112.784 306.256 114.318C307.281 115.852 307.828 117.655 307.828 119.5C307.825 121.973 306.842 124.344 305.093 126.093C303.344 127.842 300.973 128.825 298.5 128.828Z" fill="#FCADFC" fill-opacity="0.49"/>
<path d="M460.216 110.715L357.248 73.938L407.705 23.4798L394.514 10.2887L344.06 60.7433L307.285 -42.2159C306.638 -44.0278 305.446 -45.5952 303.873 -46.7036C302.301 -47.8119 300.424 -48.4068 298.5 -48.4068C296.576 -48.4068 294.699 -47.8119 293.126 -46.7036C291.554 -45.5952 290.362 -44.0278 289.715 -42.2159L252.939 60.7433L202.488 10.2898L189.295 23.481L239.748 73.9356L136.789 110.712C134.977 111.359 133.409 112.55 132.301 114.123C131.193 115.696 130.598 117.573 130.598 119.497C130.598 121.421 131.193 123.297 132.301 124.87C133.409 126.443 134.977 127.634 136.789 128.281L239.756 165.059L189.3 215.51L202.492 228.703L252.94 178.257L289.715 281.216C290.362 283.028 291.554 284.595 293.126 285.704C294.699 286.812 296.576 287.407 298.5 287.407C300.424 287.407 302.301 286.812 303.873 285.704C305.446 284.595 306.638 283.028 307.285 281.216L344.064 178.244L394.518 228.699L407.71 215.506L357.267 165.059L460.226 128.285C462.038 127.638 463.606 126.446 464.714 124.874C465.822 123.301 466.417 121.424 466.417 119.5C466.417 117.576 465.822 115.699 464.714 114.126C463.606 112.554 462.038 111.362 460.226 110.715H460.216ZM298.5 166.141C289.275 166.141 280.258 163.405 272.588 158.28C264.918 153.155 258.94 145.871 255.409 137.349C251.879 128.826 250.956 119.448 252.755 110.401C254.555 101.354 258.997 93.0429 265.52 86.5201C272.043 79.9973 280.353 75.5552 289.401 73.7556C298.448 71.9559 307.826 72.8796 316.348 76.4097C324.871 79.9398 332.155 85.9179 337.28 93.5879C342.405 101.258 345.14 110.275 345.14 119.5C345.127 131.866 340.208 143.721 331.464 152.465C322.721 161.208 310.865 166.127 298.5 166.141ZM298.5 -11.3467L323.725 59.2765C315.737 55.9278 307.162 54.2032 298.5 54.2032C289.838 54.2032 281.263 55.9278 273.274 59.2765L298.5 -11.3467ZM238.276 94.2744C234.928 102.263 233.203 110.838 233.203 119.5C233.203 128.162 234.928 136.737 238.276 144.726L167.653 119.5L238.276 94.2744ZM298.5 250.347L273.274 179.724C281.263 183.072 289.838 184.797 298.5 184.797C307.162 184.797 315.737 183.072 323.725 179.724L298.5 250.347ZM358.723 144.726C362.072 136.737 363.797 128.162 363.797 119.5C363.797 110.838 362.072 102.263 358.723 94.2744L429.347 119.5L358.723 144.726Z" fill="#FCADFC" fill-opacity="0.49"/>
<path d="M105.392 49.6422L112.538 32.4038L129.776 39.5492L122.631 56.7876L105.392 49.6422Z" fill="#FCADFC" fill-opacity="0.49"/>
<path d="M93.2812 110.172H111.938V128.828H93.2812V110.172Z" fill="#FCADFC" fill-opacity="0.49"/>
<path d="M105.46 189.426L122.698 182.281L129.843 199.519L112.605 206.664L105.46 189.426Z" fill="#FCADFC" fill-opacity="0.49"/>
<path d="M146.73 257.986L159.92 244.796L173.11 257.986L159.92 271.176L146.73 257.986Z" fill="#FCADFC" fill-opacity="0.49"/>
<path d="M211.472 305.65L218.618 288.411L235.856 295.557L228.711 312.795L211.472 305.65Z" fill="#FCADFC" fill-opacity="0.49"/>
<path d="M289.172 306.063H307.828V324.719H289.172V306.063Z" fill="#FCADFC" fill-opacity="0.49"/>
<path d="M361.473 295.365L378.711 288.22L385.857 305.458L368.618 312.603L361.473 295.365Z" fill="#FCADFC" fill-opacity="0.49"/>
<path d="M36.1754 262.059L19.7917 270.983C42.6093 312.715 74.4346 348.842 112.956 376.741L123.882 361.618C87.6171 335.356 57.6563 301.346 36.1754 262.059Z" fill="#FCADFC" fill-opacity="0.49"/>
<path d="M130.053 388.274C134.851 391.287 139.785 394.204 144.721 396.945L153.779 380.636C149.135 378.056 144.489 375.31 139.972 372.474L130.053 388.274Z" fill="#FCADFC" fill-opacity="0.49"/>
</svg>
