<svg width="489" height="389" viewBox="0 0 489 389" fill="none" xmlns="http://www.w3.org/2000/svg">
<path d="M470.344 298.5C470.344 243.152 453.931 189.047 423.182 143.027C392.432 97.0065 348.727 61.138 297.592 39.9573C246.457 18.7765 190.189 13.2346 135.905 24.0325C81.6205 34.8304 31.757 61.4831 -7.37984 100.62C-59.8608 153.101 -89.3444 224.281 -89.3444 298.5C-89.3444 372.719 -59.8608 443.899 -7.37984 496.38C45.1012 548.861 116.281 578.344 190.5 578.344C264.719 578.344 335.899 548.861 388.38 496.38C414.447 470.454 435.113 439.616 449.182 405.65C463.251 371.684 470.444 335.264 470.344 298.5ZM190.5 559.687C138.842 559.688 88.344 544.369 45.3919 515.669C2.43981 486.97 -31.0373 446.178 -50.806 398.452C-70.5746 350.726 -75.747 298.21 -65.669 247.545C-55.591 196.879 -30.7153 150.34 5.81246 113.812C54.7946 64.8303 121.229 37.3124 190.5 37.3124C259.771 37.3124 326.205 64.8303 375.188 113.812C424.17 162.795 451.688 229.229 451.688 298.5C451.688 367.771 424.17 434.205 375.188 483.188C350.991 507.517 322.208 526.806 290.507 539.937C258.805 553.068 224.814 559.781 190.5 559.687Z" fill="#FCADFC" fill-opacity="0.49"/>
<path d="M190.5 55.9688C56.7685 55.9688 -52.0312 164.769 -52.0312 298.5C-52.0312 432.232 56.7685 541.031 190.5 541.031C324.232 541.031 433.031 432.232 433.031 298.5C433.031 164.769 324.232 55.9688 190.5 55.9688ZM190.5 522.375C67.0551 522.375 -33.375 421.945 -33.375 298.5C-33.375 175.055 67.0551 74.625 190.5 74.625C313.945 74.625 414.375 175.055 414.375 298.5C414.375 421.945 313.945 522.375 190.5 522.375Z" fill="#FCADFC" fill-opacity="0.49"/>
<path d="M190.5 270.516C184.965 270.516 179.555 272.157 174.953 275.232C170.351 278.307 166.764 282.677 164.646 287.791C162.528 292.904 161.974 298.531 163.053 303.959C164.133 309.388 166.798 314.374 170.712 318.288C174.626 322.202 179.612 324.867 185.041 325.947C190.469 327.026 196.096 326.472 201.209 324.354C206.323 322.236 210.693 318.649 213.768 314.047C216.843 309.445 218.484 304.035 218.484 298.5C218.476 291.081 215.525 283.968 210.279 278.721C205.032 273.475 197.919 270.524 190.5 270.516ZM190.5 307.828C188.655 307.828 186.852 307.281 185.318 306.256C183.784 305.231 182.588 303.774 181.882 302.07C181.176 300.365 180.991 298.49 181.351 296.68C181.711 294.871 182.599 293.209 183.904 291.904C185.209 290.599 186.871 289.711 188.68 289.351C190.49 288.991 192.365 289.176 194.07 289.882C195.774 290.588 197.231 291.784 198.256 293.318C199.281 294.852 199.828 296.655 199.828 298.5C199.825 300.973 198.842 303.344 197.093 305.093C195.344 306.842 192.973 307.825 190.5 307.828Z" fill="#FCADFC" fill-opacity="0.49"/>
<path d="M352.216 289.715L249.249 252.938L299.706 202.48L286.514 189.289L236.06 239.743L199.285 136.784C198.638 134.972 197.446 133.405 195.874 132.296C194.301 131.188 192.424 130.593 190.5 130.593C188.576 130.593 186.699 131.188 185.126 132.296C183.554 133.405 182.362 134.972 181.715 136.784L144.939 239.743L94.4879 189.29L81.2956 202.481L131.748 252.936L28.7888 289.712C26.9769 290.359 25.4094 291.55 24.3011 293.123C23.1928 294.696 22.5978 296.573 22.5978 298.497C22.5978 300.42 23.1928 302.297 24.3011 303.87C25.4094 305.443 26.9769 306.634 28.7888 307.281L131.756 344.059L81.3003 394.51L94.4926 407.703L144.94 357.257L181.715 460.216C182.362 462.028 183.554 463.595 185.126 464.704C186.699 465.812 188.576 466.407 190.5 466.407C192.424 466.407 194.301 465.812 195.874 464.704C197.446 463.595 198.638 462.028 199.285 460.216L236.064 357.244L286.518 407.699L299.71 394.506L249.267 344.059L352.226 307.285C354.038 306.638 355.606 305.446 356.714 303.874C357.822 302.301 358.417 300.424 358.417 298.5C358.417 296.576 357.822 294.699 356.714 293.126C355.606 291.554 354.038 290.362 352.226 289.715H352.216ZM190.5 345.141C181.275 345.141 172.258 342.405 164.588 337.28C156.918 332.155 150.94 324.871 147.41 316.349C143.88 307.826 142.956 298.448 144.756 289.401C146.555 280.353 150.997 272.043 157.52 265.52C164.043 258.997 172.353 254.555 181.401 252.756C190.448 250.956 199.826 251.88 208.349 255.41C216.871 258.94 224.155 264.918 229.28 272.588C234.405 280.258 237.141 289.275 237.141 298.5C237.127 310.866 232.208 322.721 223.465 331.465C214.721 340.208 202.866 345.127 190.5 345.141ZM190.5 167.653L215.726 238.276C207.737 234.928 199.162 233.203 190.5 233.203C181.838 233.203 173.263 234.928 165.274 238.276L190.5 167.653ZM130.276 273.274C126.928 281.263 125.203 289.838 125.203 298.5C125.203 307.162 126.928 315.737 130.276 323.726L59.6532 298.5L130.276 273.274ZM190.5 429.347L165.274 358.724C173.263 362.072 181.838 363.797 190.5 363.797C199.162 363.797 207.737 362.072 215.726 358.724L190.5 429.347ZM250.724 323.726C254.072 315.737 255.797 307.162 255.797 298.5C255.797 289.838 254.072 281.263 250.724 273.274L321.347 298.5L250.724 323.726Z" fill="#FCADFC" fill-opacity="0.49"/>
<path d="M181.172 93.2812H199.828V111.938H181.172V93.2812Z" fill="#FCADFC" fill-opacity="0.49"/>
<path d="M103.408 112.414L120.646 105.269L127.792 122.507L110.553 129.652L103.408 112.414Z" fill="#FCADFC" fill-opacity="0.49"/>
<path d="M38.7596 159.984L51.9496 146.794L65.1396 159.984L51.9496 173.174L38.7596 159.984Z" fill="#FCADFC" fill-opacity="0.49"/>
<path d="M-2.60748 228.642L4.53786 211.404L21.7762 218.549L14.6309 235.788L-2.60748 228.642Z" fill="#FCADFC" fill-opacity="0.49"/>
<path d="M-14.7188 289.172H3.9375V307.828H-14.7188V289.172Z" fill="#FCADFC" fill-opacity="0.49"/>
<path d="M-2.54022 368.426L14.6981 361.281L21.8435 378.519L4.60512 385.664L-2.54022 368.426Z" fill="#FCADFC" fill-opacity="0.49"/>
<path d="M359.49 378.579L366.635 361.341L383.873 368.486L376.728 385.724L359.49 378.579Z" fill="#FCADFC" fill-opacity="0.49"/>
<path d="M377.062 289.172H395.719V307.828H377.062V289.172Z" fill="#FCADFC" fill-opacity="0.49"/>
<path d="M359.417 218.365L376.655 211.22L383.8 228.459L366.562 235.604L359.417 218.365Z" fill="#FCADFC" fill-opacity="0.49"/>
<path d="M315.762 160.014L328.952 146.824L342.142 160.014L328.952 173.204L315.762 160.014Z" fill="#FCADFC" fill-opacity="0.49"/>
<path d="M253.404 122.557L260.549 105.319L277.787 112.464L270.642 129.703L253.404 122.557Z" fill="#FCADFC" fill-opacity="0.49"/>
<path d="M45.7788 37.3638L36.7212 21.0547C-16.0384 50.327 -59.3712 94.0182 -88.2081 147.017L-71.8244 155.941C-44.6788 106.049 -3.88701 64.9198 45.7788 37.3638Z" fill="#FCADFC" fill-opacity="0.49"/>
<path d="M452.824 155.941L469.208 147.017C446.39 105.285 414.565 69.1576 376.043 41.2595L365.118 56.3815C401.383 82.6443 431.343 116.654 452.824 155.941Z" fill="#FCADFC" fill-opacity="0.49"/>
<path d="M358.947 29.7264C354.149 26.7134 349.215 23.796 344.279 21.0547L335.221 37.3638C339.865 39.9442 344.511 42.6901 349.028 45.5259L358.947 29.7264Z" fill="#FCADFC" fill-opacity="0.49"/>
</svg>
