<svg width="418" height="418" viewBox="0 0 418 418" fill="none" xmlns="http://www.w3.org/2000/svg">
<g clip-path="url(#clip0)">
<rect width="418" height="418" fill="white"/>
<path d="M147.252 296.239L24.8397 339.648V69.6463L147.252 26.238V296.239Z" fill="#FD6FFD" fill-opacity="0.35"/>
<path d="M144.752 29.7771V294.473L27.3397 336.109V71.4123L144.752 29.7771Z" stroke="#FD6FFD" stroke-opacity="0.49" stroke-width="5"/>
<path d="M270.532 339.648L147.252 296.239V26.238L270.532 69.6463V339.648Z" fill="#FCADFC" fill-opacity="0.3"/>
<path d="M268.032 71.4165V336.117L149.752 294.469V29.7688L268.032 71.4165Z" stroke="#FD6FFD" stroke-opacity="0.49" stroke-width="5"/>
<path d="M393.412 296.001L271 339.41V69.4083L393.412 26V296.001Z" fill="#FCADFC" fill-opacity="0.47"/>
<path d="M390.912 29.539V294.235L273.5 335.871V71.1743L390.912 29.539Z" stroke="#FD6FFD" stroke-opacity="0.49" stroke-width="5" stroke-linejoin="round"/>
<path d="M313.627 344.712L345.548 312.79L319.152 286.394L287.23 318.315L313.627 344.712Z" fill="#44448C"/>
<path d="M316.545 170.355C276.609 130.419 211.496 130.419 170.693 170.355C130.756 210.291 130.756 275.404 170.693 316.207C210.629 356.144 276.609 356.144 316.545 316.207C356.481 275.403 356.481 210.29 316.545 170.355ZM294.841 294.503C266.191 323.153 220.178 323.153 191.529 294.503C162.879 265.853 162.879 219.84 191.529 191.191C220.178 162.541 266.191 162.541 294.841 191.191C323.49 219.84 323.49 265.853 294.841 294.503Z" fill="#ACACDF"/>
<path d="M412.912 361.352L364.295 312.735C359.086 306.657 349.536 306.657 343.459 312.735L313.073 343.989C306.996 349.198 306.996 358.747 313.073 364.825L361.691 413.442C367.768 419.52 376.449 419.52 382.527 413.442L412.912 383.056C418.989 376.111 418.989 367.429 412.912 361.352Z" fill="#ACACDF"/>
</g>
<defs>
<clipPath id="clip0">
<rect width="418" height="418" fill="white"/>
</clipPath>
</defs>
</svg>
