<svg width="426" height="415" viewBox="0 0 426 415" fill="none" xmlns="http://www.w3.org/2000/svg">
<g clip-path="url(#clip0)">
<path d="M398.113 337.277C398.149 336.49 398.168 335.702 398.168 334.912C398.168 303.904 372.088 279.248 341.576 279.248C321.341 279.248 302.995 290.308 293.265 307.595C277.389 310.113 264.462 321.612 259.874 336.706C242.746 341.912 230.248 357.854 230.248 376.66C230.248 381.538 231.097 386.22 232.642 390.576H202.416V251.416H299.828C303.519 251.416 307.058 249.949 309.668 247.34L337.5 219.508C342.934 214.073 342.934 205.262 337.5 199.827L309.668 171.995C307.058 169.387 303.519 167.92 299.828 167.92H202.416V140.088H244.164C251.849 140.088 258.08 133.857 258.08 126.172V70.5078C258.08 62.8225 251.849 56.5918 244.164 56.5918H77.1719C73.4813 56.5918 69.942 58.0585 67.3323 60.6683L39.5003 88.5003C34.0656 93.935 34.0656 102.746 39.5003 108.18L67.3323 136.012C69.942 138.621 73.4813 140.088 77.1719 140.088H174.584V167.92H132.836C125.151 167.92 118.92 174.151 118.92 181.836V237.5C118.92 245.185 125.151 251.416 132.836 251.416H174.584V390.576H144.358C145.903 386.22 146.752 381.538 146.752 376.66C146.752 357.854 134.254 341.912 117.126 336.706C112.531 321.588 99.5692 310.076 83.6567 307.583C73.7931 290.512 54.832 279.248 34.4961 279.248C2.8687 279.248 -22.5624 305.793 -21.1132 337.277C-37.3402 343.006 -49 358.497 -49 376.66C-49 399.68 -30.2718 418.408 -7.25195 418.408H384.252C407.272 418.408 426 399.68 426 376.66C426 358.497 414.34 343.006 398.113 337.277ZM69.0199 98.3398L82.9359 84.4238H230.248V112.256H82.9359L69.0199 98.3398ZM146.752 195.752H294.064L307.98 209.668L294.064 223.584H146.752V195.752ZM-21.168 376.66C-21.168 368.987 -14.9252 362.744 -7.25195 362.744H-4.69697C4.89951 362.744 11.6367 353.229 8.41563 344.167C7.23648 340.852 6.66406 337.825 6.66406 334.912C6.66406 319.566 19.1495 307.08 34.4961 307.08C46.6494 307.08 57.7943 314.853 61.598 325.983C63.7884 332.391 70.4504 336.774 78.3761 334.964C85.4881 335.576 91.0879 341.561 91.0879 348.828C91.0879 356.513 97.3186 362.744 105.004 362.744C112.677 362.744 118.92 368.987 118.92 376.66C118.92 384.333 112.677 390.576 105.004 390.576H-7.25195C-14.9252 390.576 -21.168 384.333 -21.168 376.66ZM384.252 390.576H271.996C264.323 390.576 258.08 384.333 258.08 376.66C258.08 368.987 264.323 362.744 271.996 362.744C279.681 362.744 285.912 356.513 285.912 348.828C285.912 341.561 291.512 335.576 298.623 334.964C306.513 336.766 313.202 332.416 315.401 325.983C319.266 314.676 329.785 307.08 341.576 307.08C357.166 307.08 370.336 319.825 370.336 334.912C370.336 337.825 369.764 340.852 368.584 344.167C365.371 353.209 372.079 362.744 381.697 362.744H384.252C391.925 362.744 398.168 368.987 398.168 376.66C398.168 384.333 391.925 390.576 384.252 390.576V390.576Z" fill="#ACACDF" fill-opacity="0.56"/>
</g>
<defs>
<clipPath id="clip0">
<rect width="475" height="475" fill="white" transform="translate(-49)"/>
</clipPath>
</defs>
</svg>
